<svg width="68" height="63" viewBox="0 0 68 63" fill="none" xmlns="http://www.w3.org/2000/svg">
<path d="M39.1006 5.47051L39.1013 5.47117L39.1167 5.48564C47.6863 13.5036 54.76 20.122 59.6734 26.324C64.5842 32.5227 67.2856 38.2436 67.1887 44.4574C67.0309 54.575 58.9643 62.3938 48.8467 62.2359C43.1263 62.1467 37.6697 59.3955 34.1489 55.1279L33.7753 54.675L33.3877 55.116C29.7354 59.2718 24.1958 61.8514 18.4754 61.7622C8.35773 61.6043 0.538962 53.5378 0.696793 43.4201C0.793726 37.2064 3.67233 31.5725 8.77418 25.5257C13.8609 19.4968 21.1047 13.1176 29.879 5.39052L29.9865 5.29585L29.9875 5.29489L34.6074 1.25017L39.1006 5.47051Z" fill="black" stroke="black"/>
</svg>
