<svg width="155" height="22" viewBox="0 0 155 22" fill="none" xmlns="http://www.w3.org/2000/svg">
<path d="M2 2C9.55266 2 9.55266 20 17.1053 20C24.658 20 24.658 2 32.2106 2C39.7633 2 39.7633 20 47.2982 20C54.8511 20 54.8511 2 62.3859 2C69.9387 2 69.9387 20 77.4734 20C85.0262 20 85.0262 2 92.5785 2C100.131 2 100.131 20 107.684 20C115.236 20 115.236 2 122.789 2C130.342 2 130.342 20 137.895 20C145.447 20 145.447 2 153 2" stroke="#4F4F4F" stroke-width="3" stroke-miterlimit="10" stroke-linecap="round"/>
</svg>
