<svg width="83" height="83" viewBox="0 0 83 83" fill="none" xmlns="http://www.w3.org/2000/svg">
<path d="M46.1006 14.4705L46.1013 14.4712L46.1168 14.4857C54.6864 22.5037 61.7601 29.122 66.6734 35.324C71.5842 41.5227 74.2856 47.2436 74.1887 53.4574C74.0309 63.575 65.9643 71.3938 55.8467 71.2359C50.1263 71.1467 44.6697 68.3955 41.1489 64.1279L40.7753 63.675L40.3877 64.116C36.7354 68.2718 31.1958 70.8514 25.4754 70.7622C15.3577 70.6043 7.53896 62.5378 7.69679 52.4201C7.79373 46.2064 10.6723 40.5725 15.7742 34.5257C20.8609 28.4968 28.1047 22.1176 36.8789 14.3906L36.9865 14.2959L36.9875 14.2949L41.6074 10.2502L46.1006 14.4705Z" fill="black" stroke="black"/>
<rect x="80.498" y="81.7459" width="80" height="80" transform="rotate(-179.106 80.498 81.7459)" stroke="black"/>
</svg>
