<svg width="81" height="88" viewBox="0 0 81 88" fill="none" xmlns="http://www.w3.org/2000/svg">
<path d="M39.9162 1.0974C39.9635 0.664635 40.2436 0.5 40.5 0.5C40.7565 0.5 41.0365 0.664635 41.0838 1.0974L42.358 12.7646C44.0255 28.0324 55.1145 40.1169 69.2367 41.9373L79.9759 43.3217C80.2984 43.3633 80.5 43.6301 80.5 44C80.5 44.3699 80.2984 44.6367 79.9758 44.6783L69.2367 46.0627C55.1145 47.8832 44.0255 59.9676 42.358 75.2353L41.0838 86.9025C41.0365 87.3354 40.7564 87.5 40.5 87.5C40.2436 87.5 39.9636 87.3354 39.9162 86.9025L38.642 75.2353C36.9745 59.9676 25.8855 47.8832 11.7632 46.0627L1.02408 44.6783C1.02406 44.6783 1.02404 44.6783 1.02402 44.6783C0.701627 44.6367 0.5 44.3699 0.5 44C0.5 43.6301 0.701627 43.3633 1.02402 43.3217C1.02404 43.3217 1.02406 43.3217 1.02408 43.3217L11.7632 41.9373C25.8855 40.1169 36.9745 28.0324 38.642 12.7646L39.9162 1.0974Z" fill="#333333" stroke="black"/>
</svg>
