<svg width="20" height="131" viewBox="0 0 20 131" fill="none" xmlns="http://www.w3.org/2000/svg">
<path d="M1 130C1 123.548 19 123.548 19 117.095C19 110.643 1 110.643 1 104.191C1 97.7386 19 97.7386 19 91.3015C19 84.849 1 84.849 1 78.4121C1 71.9597 19 71.9597 19 65.5227C19 59.0703 1 59.0703 1 52.6184C1 46.1659 19 46.1659 19 39.7135C19 33.2616 1 33.2616 1 26.8092C1 20.3568 19 20.3568 19 13.9044C19 7.45242 1 7.45241 1 0.999999" stroke="#4F4F4F" stroke-width="2" stroke-miterlimit="10" stroke-linecap="round"/>
</svg>
