<svg width="81" height="81" viewBox="0 0 81 81" fill="none" xmlns="http://www.w3.org/2000/svg">
<g clip-path="url(#clip0_1_314)">
<path d="M35.9426 67.2307L35.9419 67.2301L35.9262 67.2158C27.2326 59.3325 20.0565 52.8253 15.0469 46.7006C10.0401 40.5793 7.24976 34.9012 7.24976 28.6867C7.24976 18.5678 15.1934 10.6242 25.3123 10.6242C31.0334 10.6242 36.5321 13.2899 40.1191 17.5021L40.4998 17.9492L40.8804 17.5021C44.4674 13.2899 49.9661 10.6242 55.6873 10.6242C65.8061 10.6242 73.7498 18.5678 73.7498 28.6867C73.7498 34.9012 70.9594 40.5793 65.9525 46.705C60.9604 52.8124 53.817 59.3039 45.1643 67.1669L45.0583 67.2632L45.0572 67.2642L40.501 71.3805L35.9426 67.2307Z" fill="white" stroke="black"/>
</g>
<defs>
<clipPath id="clip0_1_314">
<rect width="81" height="81" fill="white"/>
</clipPath>
</defs>
</svg>
