<svg width="61" height="126" viewBox="0 0 61 126" fill="none" xmlns="http://www.w3.org/2000/svg">
<path d="M38.5284 2C18.3542 2 2 8.10648 2 15.6392C2 23.1719 18.3542 29.2785 38.5284 29.2785C49.8345 29.2785 59 26.6935 59 23.5048C59 20.3161 49.8345 17.7311 38.5284 17.7311C18.3542 17.7311 2 23.8376 2 31.3703C2 38.9031 18.3542 45.0098 38.5284 45.0098C49.8345 45.0098 59 42.4247 59 39.2359C59 36.0472 49.8345 33.4623 38.5284 33.4623C18.3542 33.4623 2 39.6063 2 47.1851C2 54.764 18.3542 60.9082 38.5284 60.9082C49.8345 60.9082 59 58.3232 59 55.1344C59 51.9455 49.8345 49.361 38.5284 49.361C18.3542 49.361 2 55.4672 2 63C2 70.5328 18.3542 76.639 38.5284 76.639C49.8345 76.639 59 74.0545 59 70.8656C59 67.6768 49.8345 65.0918 38.5284 65.0918C18.3542 65.0918 2 71.1985 2 78.7313C2 86.2641 18.3542 92.3703 38.5284 92.3703C49.8345 92.3703 59 89.7852 59 86.5969C59 83.4081 49.8345 80.823 38.5284 80.823C18.3542 80.823 2 86.9298 2 94.4621C2 101.995 18.3542 108.102 38.5284 108.102C49.8345 108.102 59 105.517 59 102.328C59 99.1394 49.8345 96.5543 38.5284 96.5543C18.3542 96.5543 2 102.698 2 110.277C2 117.856 18.3542 124 38.5284 124" stroke="#4F4F4F" stroke-width="3.35294" stroke-linecap="round"/>
</svg>
