<svg width="100" height="105" viewBox="0 0 100 105" fill="none" xmlns="http://www.w3.org/2000/svg">
<path d="M46.0679 4.05976C46.881 -0.29471 53.119 -0.294718 53.9321 4.05975L56.9182 20.0532C57.4989 23.1635 61.2901 24.4001 63.5931 22.2304L75.4738 11.0374C78.701 7.99707 83.7421 11.6843 81.8223 15.6808L74.828 30.2414C73.4527 33.1044 75.8024 36.3512 78.9518 35.9396L95.0534 33.8355C99.4562 33.2602 101.378 39.2156 97.4699 41.3227L83.2684 48.9791C80.466 50.4899 80.466 54.5101 83.2684 56.0209L97.4699 63.6773C101.378 65.7844 99.4562 71.7398 95.0534 71.1645L78.9519 69.0604C75.8024 68.6488 73.4527 71.8956 74.828 74.7586L81.8223 89.3192C83.7421 93.3157 78.701 97.0029 75.4738 93.9626L63.5931 82.7696C61.2901 80.5999 57.4989 81.8365 56.9182 84.9468L53.9321 100.94C53.119 105.295 46.881 105.295 46.0679 100.94L43.0818 84.9468C42.5011 81.8365 38.7099 80.5999 36.4069 82.7696L24.5262 93.9626C21.299 97.0029 16.2579 93.3157 18.1777 89.3192L25.172 74.7586C26.5473 71.8956 24.1976 68.6488 21.0482 69.0604L4.94658 71.1645C0.543798 71.7398 -1.37833 65.7844 2.53007 63.6773L16.7316 56.0209C19.534 54.5101 19.534 50.4899 16.7316 48.9791L2.53006 41.3227C-1.37834 39.2156 0.543787 33.2602 4.94657 33.8355L21.0481 35.9396C24.1976 36.3512 26.5473 33.1044 25.172 30.2414L18.1777 15.6808C16.2579 11.6843 21.299 7.99707 24.5262 11.0374L36.4069 22.2304C38.7099 24.4001 42.5011 23.1635 43.0818 20.0532L46.0679 4.05976Z" fill="#FFDE81"/>
</svg>
