<svg width="74" height="80" viewBox="0 0 74 80" fill="none" xmlns="http://www.w3.org/2000/svg">
<path d="M36.5096 1.00284C36.5096 1.00283 36.5096 1.00281 36.5096 1.0028C36.55 0.635073 36.7849 0.5 37 0.5C37.2151 0.5 37.45 0.635073 37.4904 1.0028C37.4904 1.00281 37.4904 1.00283 37.4904 1.00284L38.6545 11.6094C40.1801 25.5092 50.3258 36.5123 63.2481 38.17L73.0592 39.4285C73.3278 39.463 73.5 39.6818 73.5 40C73.5 40.3182 73.3278 40.537 73.0591 40.5715L63.2481 41.83C50.3258 43.4877 40.1801 54.4908 38.6545 68.3905L37.4904 78.9971C37.45 79.3649 37.2151 79.5 37 79.5C36.785 79.5 36.55 79.3649 36.5096 78.9971L35.3455 68.3905C33.8199 54.4908 23.6742 43.4877 10.7518 41.83L0.940799 40.5715C0.940781 40.5715 0.940762 40.5715 0.940744 40.5715C0.67219 40.537 0.5 40.3182 0.5 40C0.5 39.6818 0.67219 39.463 0.940744 39.4285C0.940762 39.4285 0.940779 39.4285 0.940797 39.4285L10.7518 38.17C23.6742 36.5124 33.8199 25.5092 35.3455 11.6094L36.5096 1.00284Z" fill="white" stroke="black"/>
</svg>
