<svg width="19" height="131" viewBox="0 0 19 131" fill="none" xmlns="http://www.w3.org/2000/svg">
<path d="M0 130C0 123.548 18 123.548 18 117.095C18 110.643 0 110.643 0 104.191C0 97.7386 18 97.7386 18 91.3015C18 84.849 0 84.849 0 78.4121C0 71.9597 18 71.9597 18 65.5227C18 59.0703 0 59.0703 0 52.6184C0 46.1659 18 46.1659 18 39.7135C18 33.2616 0 33.2616 0 26.8092C0 20.3568 18 20.3568 18 13.9044C18 7.45242 0 7.45241 0 0.999999" stroke="#4F4F4F" stroke-width="2" stroke-miterlimit="10" stroke-linecap="round"/>
</svg>
